<?xml version="1.0" encoding="UTF-8"?>
<svg version="1.1" xmlns="http://www.w3.org/2000/svg" width="1200" height="718">
<path d="M0 0 C0.95827194 -0.00637985 1.91654388 -0.0127597 2.90385437 -0.01933289 C3.9433876 -0.02044571 4.98292084 -0.02155853 6.05395508 -0.02270508 C7.12212967 -0.02603348 8.19030426 -0.02936188 9.29084778 -0.03279114 C11.55636158 -0.03786222 13.82188287 -0.04019941 16.08740234 -0.04003906 C19.54187503 -0.0422164 22.99602371 -0.06034506 26.45043945 -0.0793457 C28.65161024 -0.08228147 30.85278254 -0.08426504 33.05395508 -0.08520508 C34.5980732 -0.09598335 34.5980732 -0.09598335 36.17338562 -0.10697937 C42.85744058 -0.08586677 48.63856122 -0.02711898 54.07348633 4.27026367 C59.4010105 10.8936721 61.48311867 18.27108167 63.55786133 26.36401367 C63.99989899 28.04678406 63.99989899 28.04678406 64.4508667 29.7635498 C65.4414122 33.55438106 66.41604841 37.34912435 67.38598633 41.14526367 C67.64338089 42.15012817 67.64338089 42.15012817 67.90597534 43.17529297 C70.41936265 52.98796564 72.90081173 62.80860454 75.37353516 72.6315918 C77.57506264 81.37718307 79.78503212 90.12064349 81.99536133 98.86401367 C82.22099762 99.75674988 82.44663391 100.64948608 82.67910767 101.5692749 C87.36559477 120.1072883 92.11789434 138.62810084 96.88598633 157.14526367 C101.9553191 176.83295776 107.00030876 196.52643447 111.98754883 216.23510742 C112.2199955 217.15368153 112.45244217 218.07225563 112.69193268 219.01866531 C114.96716722 228.0115547 117.23956934 237.00515646 119.50831032 245.99968624 C120.33727814 249.28558548 121.16702618 252.57128744 121.99686813 255.85696602 C122.56826621 258.12096937 123.1383655 260.3852971 123.70840454 262.64964294 C124.05155137 264.00879506 124.39475851 265.36793194 124.73803711 266.72705078 C125.03380646 267.9006163 125.32957581 269.07418182 125.63430786 270.28330994 C126.15236535 272.25577109 126.74108428 274.21055752 127.38598633 276.14526367 C131.44543076 259.0097605 135.50332428 241.87389032 139.56032258 224.73780787 C140.60798504 220.31271098 141.65578467 215.8876466 142.70368844 211.46260685 C150.51105998 178.49375685 158.30700595 145.5223256 166.0466218 112.53749537 C166.69726214 109.76486847 167.34816175 106.99230246 167.99907911 104.21974057 C168.79447994 100.83173634 169.58976378 97.44370465 170.38500977 94.05566406 C170.539782 93.39628251 170.69455424 92.73690096 170.85401654 92.05753815 C172.83052795 83.63632412 174.80355906 75.21430184 176.7737112 66.79159737 C177.90255803 61.96851734 179.03411309 57.14607548 180.16632271 52.32378387 C180.68589427 50.10804469 181.20427613 47.89202612 181.72132683 45.67569733 C190.15570169 9.5266299 190.15570169 9.5266299 196.13598633 3.33276367 C202.54683544 -0.05074003 209.40064492 -0.16273923 216.47583008 -0.15551758 C217.41979141 -0.1598027 218.36375275 -0.16408783 219.33631897 -0.16850281 C221.3221863 -0.17421654 223.30807455 -0.17476832 225.29394531 -0.17041016 C228.31132096 -0.16724907 231.32771583 -0.19075068 234.3449707 -0.21606445 C236.2844226 -0.21833783 238.22387711 -0.21904076 240.16333008 -0.21801758 C241.49967751 -0.2318322 241.49967751 -0.2318322 242.86302185 -0.2459259 C248.58766683 -0.20419238 254.35325656 0.19560833 259.38598633 3.14526367 C263.45575437 7.30923013 265.27025302 10.73893608 266.92700195 16.40136719 C267.13183449 17.09564347 267.33666702 17.78991976 267.5477066 18.50523472 C269.89421682 26.6144041 271.82325405 34.82635467 273.72973633 43.04760742 C274.13507403 44.7752394 274.54095382 46.50274427 274.94732666 48.23013306 C275.81386168 51.91843428 276.67677888 55.60755506 277.53674316 59.2973938 C278.91195971 65.19784745 280.29534161 71.09636882 281.67993164 76.99462891 C283.37300418 84.20920959 285.06424188 91.4242153 286.75307083 98.63979053 C290.86788677 116.21912864 295.01461929 133.79089081 299.16518116 151.36181736 C300.69262779 157.82852094 302.21794149 164.29572491 303.7421875 170.76318359 C307.76458132 187.82785001 311.79680316 204.89003888 315.86014938 221.94500542 C317.06925542 227.02238895 318.2755733 232.10043575 319.48184013 237.17849445 C320.60775434 241.91658041 321.73856358 246.65346219 322.87318516 251.3894701 C323.56142304 254.26721716 324.24507365 257.14603917 324.92742729 260.02518654 C325.39112754 261.97536856 325.86052005 263.92419437 326.33009338 265.87297058 C326.60353073 267.03049332 326.87696808 268.18801605 327.15869141 269.38061523 C327.39735428 270.38014221 327.63601715 271.37966919 327.88191223 272.40948486 C328.37001487 275.05858125 328.48228268 277.45908008 328.38598633 280.14526367 C329.04598633 280.14526367 329.70598633 280.14526367 330.38598633 280.14526367 C330.51262665 278.98337021 330.63926697 277.82147675 330.76974487 276.62437439 C331.28911352 272.49129607 332.1825984 268.50378916 333.24584961 264.47949219 C333.43389286 263.75124489 333.62193611 263.02299759 333.81567764 262.27268219 C334.44115002 259.85525555 335.07372744 257.43974778 335.70629883 255.02416992 C336.15764552 253.28538985 336.60853073 251.54648992 337.05899048 249.80747986 C338.02815905 246.06986499 339.00045086 242.33308202 339.97521973 238.59692383 C341.53268343 232.62731478 343.08341039 226.65596861 344.63305664 220.68432617 C346.25114763 214.45030733 347.86977091 208.21642876 349.49084473 201.98318481 C354.3448791 183.3185659 359.16826267 164.64611038 363.98646164 145.9722147 C365.65451945 139.50824354 367.32511305 133.04493166 368.99731445 126.58203125 C369.34961561 125.22040123 369.34961561 125.22040123 369.70903397 123.83126354 C370.65005891 120.19442653 371.59114194 116.55760456 372.532341 112.92081261 C375.31165954 102.18071521 378.08409716 91.43889262 380.84500122 80.69404602 C382.60649962 73.83942033 384.37305883 66.98611254 386.14343262 60.1337738 C387.16838797 56.16556463 388.19072457 52.19672682 389.20617676 48.22607422 C390.14003195 44.57452338 391.08108769 40.92490354 392.02756119 37.2766037 C392.52681986 35.34453203 393.01846475 33.4104977 393.50973511 31.47637939 C399.70631833 7.69958276 399.70631833 7.69958276 406.38598633 3.14526367 C412.93906479 0.23559355 419.05595453 -0.29881699 426.15161133 -0.25317383 C427.1480365 -0.25604401 428.14446167 -0.25891418 429.17108154 -0.26187134 C431.26192804 -0.26390033 433.35279402 -0.25845263 435.44360352 -0.24584961 C438.64097313 -0.22971116 441.83709184 -0.2457733 445.03442383 -0.26489258 C447.07348911 -0.26291127 449.11255361 -0.25906993 451.15161133 -0.25317383 C452.10376526 -0.25924652 453.05591919 -0.26531921 454.03692627 -0.27157593 C462.69313121 -0.1797591 462.69313121 -0.1797591 466.38598633 3.14526367 C470.6363106 11.72389614 467.0022397 21.50508297 464.22973633 30.09448242 C463.90020462 31.14682571 463.57067291 32.19916901 463.2311554 33.28340149 C462.12636131 36.80317753 461.0060128 40.31780793 459.88598633 43.83276367 C459.0836605 46.37993999 458.28232013 48.9274043 457.48242188 51.4753418 C455.9625132 56.31274677 454.43848648 61.14882254 452.90970516 65.98343086 C449.73064193 76.03721596 446.57937539 86.09956145 443.43676758 96.16479492 C443.1839867 96.97433624 442.93120583 97.78387756 442.67076492 98.61795044 C441.63575771 101.93273752 440.6008342 105.2475507 439.56611443 108.56242752 C437.70939691 114.51037091 435.85047814 120.45762324 433.99047852 126.40454102 C427.08616526 148.4812225 420.20874314 170.56612394 413.35028076 192.65708923 C404.79432172 220.2150196 396.21101578 247.76421716 387.56079102 275.29272461 C387.24237212 276.30607785 387.24237212 276.30607785 386.91752052 277.33990288 C386.08357863 279.99373527 385.24961457 282.64756064 384.41534042 285.3012886 C382.08520266 292.71386703 379.76572687 300.1295187 377.47038269 307.552948 C376.36095418 311.13981524 375.24577282 314.72487841 374.12973022 318.30969238 C373.64585852 319.86985153 373.16492558 321.43092618 372.68740845 322.99304199 C366.05981066 344.67186724 366.05981066 344.67186724 360.26098633 348.70776367 C356.42194955 350.62728206 353.62237194 351.27409059 349.38305664 351.30639648 C348.36479797 351.31600403 347.34653931 351.32561157 346.29742432 351.33551025 C345.19743103 351.33976013 344.09743774 351.34401001 342.96411133 351.34838867 C341.26408966 351.35693878 341.26408966 351.35693878 339.52972412 351.36566162 C337.12895644 351.37511395 334.72817578 351.38164652 332.32739258 351.38549805 C328.66439992 351.3951885 325.00197191 351.42620429 321.33911133 351.45776367 C319.00578132 351.46429534 316.67244731 351.46954517 314.33911133 351.47338867 C313.24721497 351.48573547 312.1553186 351.49808228 311.03033447 351.51080322 C304.00719832 351.49035721 298.5882145 351.07301515 293.19848633 346.14526367 C287.0441278 335.95873921 285.11465535 323.42643135 282.40551758 311.97729492 C281.91966491 309.94556603 281.43321894 307.91397894 280.94622803 305.88252258 C279.90280831 301.52463511 278.86339659 297.16581893 277.82717896 292.80621338 C276.18039199 285.87786336 274.5249901 278.95158994 272.86816406 272.02563477 C271.13724758 264.78803903 269.40702513 257.5502803 267.6799469 250.31176758 C263.64588638 233.40449157 259.59346912 216.50171103 255.52661133 199.60229492 C255.24845266 198.44630861 254.970294 197.2903223 254.68370628 196.09930611 C253.30551427 190.37192395 251.92706202 184.64460447 250.5484314 178.91732788 C248.01492226 168.39210369 245.48258874 157.8665973 242.95239258 147.34057617 C242.71836039 146.36698088 242.48432819 145.39338558 242.24320412 144.3902874 C237.25872444 123.64958324 232.31623639 102.89891754 227.38598633 82.14526367 C219.96786297 111.49330693 212.80569475 140.89595005 205.81335449 170.34817505 C204.15438714 177.33430091 202.48886438 184.31885572 200.82250977 191.30322266 C195.89072617 211.98001328 190.96610633 232.65835954 186.09304714 253.34908104 C183.90045455 262.65768388 181.69846268 271.96402974 179.48976231 281.26882362 C177.93604979 287.81756126 176.39522533 294.36915192 174.8640604 300.92319584 C173.91317162 304.97913628 172.94979679 309.03203494 171.98294258 313.08419609 C171.54125775 314.94639253 171.10464251 316.80980052 170.67371941 318.67451668 C165.67732415 340.26829334 165.67732415 340.26829334 160.38598633 347.14526367 C155.4538362 350.07795225 151.32292338 351.25916343 145.65258789 351.30639648 C144.25027924 351.3208078 144.25027924 351.3208078 142.81964111 351.33551025 C141.81544128 351.33976013 140.81124146 351.34401001 139.77661133 351.34838867 C138.73583435 351.35408875 137.69505737 351.35978882 136.6227417 351.36566162 C134.42046116 351.37510321 132.21816654 351.38164226 130.01586914 351.38549805 C126.66242521 351.39518728 123.30959856 351.42621248 119.95629883 351.45776367 C117.81307329 351.46429582 115.66984338 351.46954546 113.52661133 351.47338867 C112.53050842 351.48573547 111.53440552 351.49808228 110.50811768 351.51080322 C103.85772221 351.48973843 98.06531452 351.07815977 92.71337891 346.8119812 C87.85393011 341.81867876 86.10342969 335.63190968 84.08911133 329.10620117 C83.51969818 327.32999893 83.51969818 327.32999893 82.93878174 325.51791382 C81.73345651 321.7330365 80.5562729 317.94111232 79.38598633 314.14526367 C79.01159424 312.93906372 78.63720215 311.73286377 78.25146484 310.4901123 C75.71025326 302.28359788 73.22543829 294.06055758 70.75559998 285.83237076 C69.68145893 282.25757239 68.60246022 278.68424094 67.52368164 275.11083984 C67.07610423 273.62809953 66.62853347 272.14535721 66.18096924 270.66261292 C65.95744026 269.92209749 65.73391129 269.18158207 65.5036087 268.41862679 C64.82157733 266.15846877 64.14005656 263.89815738 63.4586792 261.63780212 C58.92764394 246.60904684 54.35697073 231.59244412 49.7816925 216.57711029 C47.81031439 210.10662311 45.84042608 203.63568208 43.87036133 197.16479492 C43.64935509 196.43892181 43.42834885 195.71304871 43.20064545 194.96517944 C39.61770308 183.19702465 36.03954846 171.42741953 32.46411133 159.65698242 C32.21463745 158.83571114 31.96516357 158.01443985 31.70812988 157.16828156 C29.43058337 149.67037148 27.15335077 142.17236608 24.87646484 134.67425537 C19.6191112 117.36108422 14.35906302 100.04875307 9.08381653 82.74102402 C8.34600702 80.32023253 7.60834322 77.89939669 6.87072754 75.47854614 C6.39013945 73.90130532 5.90954865 72.32406532 5.42895508 70.74682617 C5.19461006 69.97773359 4.96026505 69.20864101 4.71881866 68.4162426 C3.35718318 63.94797364 1.99443411 59.48004626 0.63081741 55.01238155 C-0.20863093 52.26120816 -1.04708169 49.50973142 -1.88529205 46.75818062 C-2.44657921 44.91680914 -3.00911646 43.07581885 -3.57171631 41.23484802 C-4.59495571 37.87432434 -5.60688248 34.51064737 -6.61401367 31.14526367 C-6.98627075 29.91518585 -7.35852783 28.68510803 -7.74206543 27.41775513 C-8.10489624 26.19224945 -8.46772705 24.96674377 -8.84155273 23.70410156 C-9.16963928 22.60505997 -9.49772583 21.50601837 -9.83575439 20.37367249 C-11.03343502 15.4054019 -11.67451546 10.18264718 -10.61401367 5.14526367 C-7.27202014 1.15952548 -5.10606894 0.02303554 0 0 Z " fill="#242E3D" transform="translate(388.614013671875,13.854736328125)"/>
<path d="M0 0 C5.04825218 2.20591361 9.77937784 4.85690629 14.55175781 7.60107422 C18.87338928 10.07045478 23.25307075 12.43370179 27.625 14.8125 C28.54829102 15.31740967 29.47158203 15.82231934 30.42285156 16.3425293 C39.95255983 21.54644594 49.55911043 26.59628976 59.21337891 31.56494141 C61.00127668 32.48567586 62.78756035 33.40955531 64.57177734 34.33740234 C139.37108782 73.17466384 220.57454733 100.78742489 662 155 C662.89857727 154.93447937 663.79715454 154.86895874 664.72296143 154.80145264 C760.54604129 147.7185973 855.06658624 129.69543909 971.02050781 91.67980957 C972.89042315 91.03763157 974.7615806 90.39907371 976.6328125 89.76074219 C996.45680794 82.9702335 1015.8680193 75.18307421 1035.27632141 67.29740906 C1042.93192539 64.19397037 1048.70269167 62.6391857 1056.75 65.1875 C1061.30304897 67.72670039 1064.12606762 70.68910143 1067 75 C1068.57555174 81.05981439 1067.78433395 85.53119336 1065 91 C1059.90504738 97.21139825 1053.52105275 101.72434019 1046.875 106.125 C1045.44136108 107.08660034 1045.44136108 107.08660034 1043.97875977 108.06762695 C1040.99498156 110.05933615 1038.00020172 112.03313008 1035 114 C1034.06687988 114.61246582 1033.13375977 115.22493164 1032.17236328 115.85595703 C1019.06529782 124.41713909 1005.70078203 132.42826542 992 140 C991.00516602 140.55155762 990.01033203 141.10311523 988.98535156 141.67138672 C912.28035638 184.03960235 827.74708419 212.09282064 508 242 C506.40576982 241.86969255 504.8115312 241.73948825 503.21728516 241.609375 C419.65863576 234.68452071 337.23627626 216.59503708 204 163 C202.92508301 162.49903809 201.85016602 161.99807617 200.74267578 161.48193359 C177.44302911 150.57518774 154.77317681 138.72630965 132.66113281 125.57666016 C130.27946249 124.16557511 127.88941681 122.77114839 125.4921875 121.38671875 C98.85137612 105.9776934 73.59048028 88.47965468 49 70 C48.4004248 69.54963379 47.80084961 69.09926758 47.18310547 68.63525391 C38.56319008 62.13601235 30.18956696 55.33976413 21.83789062 48.50146484 C20.19344437 47.15803439 18.54246048 45.82261569 16.890625 44.48828125 C11.62746851 40.22869274 6.54508068 35.83366823 1.5546875 31.2578125 C-1.17340245 28.84674829 -4.00802452 26.6183893 -6.875 24.375 C-11.20136726 20.8330166 -14.10609864 18.30292382 -16 13 C-16.35338318 8.39031276 -15.873996 5.15593019 -13.0625 1.4375 C-8.37791718 -0.76138581 -5.08642409 -1.13673872 0 0 Z " fill="#FF9900" transform="translate(22,470)"/>
<path d="M0 0 C24.3269539 22.81092634 32.02749921 55.88239877 34 88 C34.14382527 92.61429921 34.17353909 97.22595056 34.18945312 101.84228516 C34.20218432 103.86460457 34.21491568 105.88692398 34.2276535 107.90924335 C34.24029262 110.05641988 34.25066521 112.20359638 34.26036072 114.35078812 C34.28084773 118.86014484 34.30846344 123.36944193 34.33703613 127.87875366 C34.39677105 137.4608074 34.44872878 147.04289783 34.5 156.625 C34.5553597 166.95485362 34.61225758 177.28468882 34.67754889 187.61448514 C34.70096785 191.35346158 34.7225607 195.09242878 34.73963928 198.83143997 C34.7961717 217.91925497 34.7961717 217.91925497 35.44335938 236.99365234 C35.47995415 237.71481546 35.51654892 238.43597858 35.55425262 239.17899513 C36.42828754 253.81246227 40.61238453 267.7060071 47.390625 280.66015625 C47.80103027 281.44608154 48.21143555 282.23200684 48.63427734 283.04174805 C49.4366227 284.55060569 50.25871098 286.04920017 51.10400391 287.53442383 C54.01069094 292.93318038 55.40476905 297.89788039 54 304 C50.12493198 311.36331998 42.00595148 315.77862366 35.2109375 320.18408203 C33.36379281 321.38226977 31.52897546 322.5977091 29.6953125 323.81640625 C15.12173731 333.41640688 15.12173731 333.41640688 7 332 C-9.91870797 325.23251681 -19.23806419 302.15687702 -27 287 C-31.43053334 290.6842957 -35.52705503 294.50334962 -39.5 298.6875 C-65.47273198 325.16162007 -102.4403122 338.62368639 -139.06347656 339.28320312 C-171.57065402 339.54153831 -200.85550591 332.23410615 -224.8125 309.30859375 C-245.67841274 287.4566394 -252.52045319 259.18751357 -252.15234375 229.81640625 C-251.44895399 200.43099124 -239.54815168 174.73414678 -218.61328125 154.37109375 C-200.03719721 137.5165601 -176.41400676 128.31166088 -152 124 C-150.14568359 123.66162109 -150.14568359 123.66162109 -148.25390625 123.31640625 C-109.59276428 117.57857044 -69.70306836 124.76152214 -32 133 C-32.07017944 127.52677916 -32.15871925 122.05423091 -32.26245117 116.58154297 C-32.29518277 114.72973261 -32.32336494 112.87783482 -32.34643555 111.02587891 C-32.64144495 87.93982355 -33.72790951 61.78454709 -50.02734375 43.7578125 C-66.69400866 27.78433619 -91.1119928 25.57439111 -113.0625 25.6875 C-113.83512177 25.68998749 -114.60774353 25.69247498 -115.40377808 25.69503784 C-146.45657266 25.84940169 -175.36121709 34.41676793 -204.19140625 45.6171875 C-217.2295853 50.5961685 -217.2295853 50.5961685 -224 49 C-226.77140751 47.26211026 -227.12371316 45.62886053 -228.171875 42.484375 C-230.5673493 31.60037352 -231.21543309 14.35310367 -227 4 C-212.70205389 -16.53968909 -170.55740204 -22.61282294 -148 -27 C-147.12182617 -27.17789062 -146.24365234 -27.35578125 -145.33886719 -27.5390625 C-98.37174443 -36.66100079 -37.41773885 -32.69569194 0 0 Z M-166.93359375 188.73828125 C-178.35576474 201.24005252 -182.55373625 216.86942954 -182.25390625 233.5 C-181.33675736 246.14254474 -178.54914666 257.61992334 -171 268 C-170.46375 268.804375 -169.9275 269.60875 -169.375 270.4375 C-160.73600084 279.75852541 -148.64535202 285.27131101 -136.04956055 286.22290039 C-104.84388178 287.33678747 -77.20735642 280.8187044 -53.43359375 259.72265625 C-36.85183202 244.10288985 -31.66494088 223.63399021 -30.87548828 201.51074219 C-30.75378273 194.00523096 -30.82602488 186.50412672 -31 179 C-40.84140017 176.1666413 -50.68366384 174.30136198 -60.8125 172.8125 C-61.94405518 172.64588867 -63.07561035 172.47927734 -64.24145508 172.30761719 C-76.71249075 170.53216023 -88.97593701 169.7617203 -101.5625 169.75 C-102.69126556 169.74848938 -102.69126556 169.74848938 -103.84283447 169.74694824 C-126.4437754 169.76739016 -149.69198332 172.54535553 -166.93359375 188.73828125 Z " fill="#242E3D" transform="translate(307,35)"/>
<path d="M0 0 C5.47556352 4.93788294 9.59544473 9.46346758 10.22387695 17.09179688 C10.27368578 24.26054348 10.27368578 24.26054348 10.26489258 27.10498047 C10.26172807 29.25149111 10.28523509 31.39662772 10.31054688 33.54296875 C10.31281981 34.91666494 10.31352339 36.29036481 10.3125 37.6640625 C10.31548096 38.90478516 10.31846191 40.14550781 10.3215332 41.42382812 C9.81062291 45.99890419 8.15875943 48.54827182 4.94921875 51.7578125 C-5.07474066 53.14042759 -14.20718764 48.18318752 -23.26953125 44.421875 C-36.88964909 38.91064175 -51.46308866 35.45085105 -66.05078125 33.7578125 C-66.91316406 33.64695313 -67.77554687 33.53609375 -68.6640625 33.421875 C-94.48997031 30.65614826 -126.5821738 30.77912964 -148.1171875 47.34765625 C-155.75738378 54.36079538 -159.47624147 64.03208611 -160.234375 74.2265625 C-160.54349581 86.00952032 -157.11997344 95.30843869 -149.44995117 104.30102539 C-134.54397702 119.82082085 -108.3384389 125.53734629 -88.6887207 131.70678711 C-85.45379625 132.72435691 -82.22205948 133.75193415 -78.99023438 134.77929688 C-78.35670327 134.98060243 -77.72317217 135.18190798 -77.07044315 135.3893137 C-75.17194674 135.99256704 -73.2734733 136.59589267 -71.375 137.19921875 C-69.52412025 137.78666115 -69.52412025 137.78666115 -67.635849 138.38597107 C-34.68517333 148.85339453 -34.68517333 148.85339453 -25.11328125 153.5703125 C-24.24832031 153.99207764 -23.38335938 154.41384277 -22.4921875 154.84838867 C0.73196178 166.48854311 17.12790957 184.11327997 25.94921875 208.7578125 C33.69482808 235.8069326 30.60157182 263.92597363 17.67578125 288.81640625 C14.54649073 294.14752788 10.83239889 298.95897714 6.94921875 303.7578125 C6.33433594 304.53898437 5.71945312 305.32015625 5.0859375 306.125 C-18.33150412 334.30616101 -56.71864356 345.3795059 -91.74609375 349.15625 C-133.09468231 352.64121077 -186.73948886 347.29867409 -222.05078125 323.7578125 C-227.31313665 319.05222507 -230.76357626 314.43607874 -231.32543945 307.24023438 C-231.34523499 305.90246187 -231.35335481 304.56448026 -231.3515625 303.2265625 C-231.35584763 302.51302612 -231.36013275 301.79948975 -231.36454773 301.06433105 C-231.37026909 299.56161557 -231.37080752 298.05887241 -231.36645508 296.55615234 C-231.36329092 294.26481737 -231.38679387 291.97476977 -231.41210938 289.68359375 C-231.4143823 288.21875162 -231.4150859 286.75390604 -231.4140625 285.2890625 C-231.42327225 284.60871948 -231.43248199 283.92837646 -231.44197083 283.22741699 C-231.40018517 278.90603014 -230.76901144 276.14801224 -228.05078125 272.7578125 C-224.31362755 270.17217347 -221.19914537 270.63408713 -216.85644531 271.17871094 C-211.77536047 272.22746949 -207.16759754 274.3240639 -202.42578125 276.3828125 C-182.10812324 284.80728085 -161.8682475 290.00572567 -140.05078125 292.7578125 C-139.24237793 292.8616626 -138.43397461 292.9655127 -137.60107422 293.07250977 C-115.45064123 295.61825094 -92.27505245 294.80646345 -71.05078125 287.7578125 C-70.15746094 287.47164063 -69.26414062 287.18546875 -68.34375 286.890625 C-57.83044122 283.14888046 -47.84874079 276.02257434 -42.6171875 266.015625 C-37.45699193 254.99356421 -35.68420581 242.48785072 -39.67578125 230.6953125 C-41.78618027 225.80807267 -44.47940146 221.69593545 -48.05078125 217.7578125 C-48.50582031 217.24863281 -48.96085937 216.73945313 -49.4296875 216.21484375 C-63.07063589 202.93005589 -86.93497308 197.61908931 -104.51171875 192.234375 C-105.47347015 191.939535 -105.47347015 191.939535 -106.45465088 191.63873863 C-112.44872152 189.80327856 -118.44610251 187.97882335 -124.44824219 186.16992188 C-160.48979118 175.29459214 -196.03415362 162.73758898 -215.35351562 127.97607422 C-226.85276467 106.50093025 -231.35583119 80.66372179 -225.0234375 56.77734375 C-220.21004267 41.83455578 -213.52222727 29.51218402 -203.05078125 17.7578125 C-201.94476562 16.50871094 -201.94476562 16.50871094 -200.81640625 15.234375 C-157.26340518 -31.09549527 -50.3720306 -39.20754912 0 0 Z " fill="#242E3D" transform="translate(1115.05078125,26.2421875)"/>
<path d="M0 0 C6.36047157 6.2159154 6.8576696 14.99052996 6.99169922 23.51074219 C7.05964369 44.90925324 3.19633079 65.05526154 -2.25 85.6875 C-2.44819336 86.46254883 -2.64638672 87.23759766 -2.85058594 88.03613281 C-11.97315493 123.46942665 -29.52974435 156.9522719 -53.25 184.6875 C-53.9409375 185.52023437 -54.631875 186.35296875 -55.34375 187.2109375 C-61.57189057 194.599777 -69.53438747 202.32969374 -78.25 206.6875 C-81.72348974 206.94479554 -84.41655709 207.00805497 -87.6875 205.75 C-90.23506588 202.38721303 -89.66830869 198.76770205 -89.25 194.6875 C-88.42254137 191.48717698 -87.22231713 188.4977345 -85.953125 185.44921875 C-85.6081044 184.5827623 -85.2630838 183.71630585 -84.90760803 182.82359314 C-84.16763475 180.96671838 -83.42136368 179.11234296 -82.66934204 177.26031494 C-80.67773173 172.34607874 -78.74263776 167.40977651 -76.80859375 162.47265625 C-76.22303963 160.98019379 -76.22303963 160.98019379 -75.62565613 159.45758057 C-53.53672157 106.36845594 -53.53672157 106.36845594 -52.25 50.6875 C-54.42623167 45.81274106 -57.44697192 43.24451772 -62.109375 40.8515625 C-73.4106327 36.66278788 -86.25851192 34.97690632 -98.25 34.6875 C-99.05840332 34.66703613 -99.86680664 34.64657227 -100.69970703 34.62548828 C-129.80970408 33.99818469 -158.62612721 36.7467338 -187.51025391 40.01049805 C-188.49393448 40.12043594 -189.47761505 40.23037384 -190.49110413 40.34364319 C-192.33469708 40.55043892 -194.17786818 40.76104781 -196.02049255 40.9763031 C-208.90085662 42.42160731 -208.90085662 42.42160731 -214.25 40.75 C-216.53502288 38.39357016 -216.6934076 37.62154979 -216.9375 34.4375 C-216.62969376 30.10023022 -215.56406798 27.58341085 -212.51953125 24.49609375 C-164.68151632 -13.62611092 -54.60288662 -33.82881541 0 0 Z " fill="#FF9900" transform="translate(1187.25,459.3125)"/>
</svg>
